<svg width="480" height="80" viewBox="0 0 480 80" fill="none" xmlns="http://www.w3.org/2000/svg">
<g clip-path="url(#clip0)">
<rect width="480" height="80" fill="#E4F7FF"/>
<path d="M30.7088 57.1513C30.1668 59.1741 27.9976 60.3503 25.8637 59.7785C23.7298 59.2068 22.4394 57.1035 22.9814 55.0808C23.5234 53.0581 29.2284 47.2215 29.2284 47.2215C29.2284 47.2215 31.2508 55.1286 30.7088 57.1513Z" fill="#4BA9FF" fill-opacity="0.25"/>
<path d="M84.7088 57.1513C84.1668 59.1741 81.9976 60.3503 79.8637 59.7785C77.7298 59.2068 76.4394 57.1035 76.9814 55.0808C77.5234 53.0581 83.2284 47.2215 83.2284 47.2215C83.2284 47.2215 85.2508 55.1286 84.7088 57.1513Z" fill="#4BA9FF" fill-opacity="0.25"/>
<path d="M57.7088 57.1513C57.1668 59.1741 54.9976 60.3503 52.8637 59.7785C50.7298 59.2068 49.4394 57.1035 49.9814 55.0808C50.5234 53.0581 56.2284 47.2215 56.2284 47.2215C56.2284 47.2215 58.2508 55.1286 57.7088 57.1513Z" fill="#4BA9FF" fill-opacity="0.25"/>
<path d="M111.709 57.1513C111.167 59.1741 108.998 60.3503 106.864 59.7785C104.73 59.2068 103.439 57.1035 103.981 55.0808C104.523 53.0581 110.228 47.2215 110.228 47.2215C110.228 47.2215 112.251 55.1286 111.709 57.1513Z" fill="#4BA9FF" fill-opacity="0.25"/>
<path d="M165.709 57.1513C165.167 59.1741 162.998 60.3503 160.864 59.7785C158.73 59.2068 157.439 57.1035 157.981 55.0808C158.523 53.0581 164.228 47.2215 164.228 47.2215C164.228 47.2215 166.251 55.1286 165.709 57.1513Z" fill="#4BA9FF" fill-opacity="0.25"/>
<path d="M138.709 57.1513C138.167 59.1741 135.998 60.3503 133.864 59.7785C131.73 59.2068 130.439 57.1035 130.981 55.0808C131.523 53.0581 137.228 47.2215 137.228 47.2215C137.228 47.2215 139.251 55.1286 138.709 57.1513Z" fill="#4BA9FF" fill-opacity="0.25"/>
<path d="M19.7088 81.9651C19.1668 83.9878 16.9976 85.1641 14.8637 84.5923C12.7298 84.0205 11.4394 81.9173 11.9814 79.8946C12.5234 77.8718 18.2284 72.0353 18.2284 72.0353C18.2284 72.0353 20.2508 79.9424 19.7088 81.9651Z" fill="#4BA9FF" fill-opacity="0.25"/>
<path d="M73.7088 81.9651C73.1668 83.9878 70.9976 85.1641 68.8637 84.5923C66.7298 84.0205 65.4394 81.9173 65.9814 79.8946C66.5234 77.8718 72.2284 72.0353 72.2284 72.0353C72.2284 72.0353 74.2508 79.9424 73.7088 81.9651Z" fill="#4BA9FF" fill-opacity="0.25"/>
<path d="M46.7088 81.9651C46.1668 83.9878 43.9976 85.1641 41.8637 84.5923C39.7298 84.0205 38.4394 81.9173 38.9814 79.8946C39.5234 77.8718 45.2284 72.0353 45.2284 72.0353C45.2284 72.0353 47.2508 79.9424 46.7088 81.9651Z" fill="#4BA9FF" fill-opacity="0.25"/>
<path d="M100.709 81.9651C100.167 83.9878 97.9976 85.1641 95.8637 84.5923C93.7298 84.0205 92.4394 81.9173 92.9814 79.8946C93.5234 77.8718 99.2284 72.0353 99.2284 72.0353C99.2284 72.0353 101.251 79.9424 100.709 81.9651Z" fill="#4BA9FF" fill-opacity="0.25"/>
<path d="M154.709 81.9651C154.167 83.9878 151.998 85.1641 149.864 84.5923C147.73 84.0205 146.439 81.9173 146.981 79.8946C147.523 77.8718 153.228 72.0353 153.228 72.0353C153.228 72.0353 155.251 79.9424 154.709 81.9651Z" fill="#4BA9FF" fill-opacity="0.25"/>
<path d="M127.709 81.9651C127.167 83.9878 124.998 85.1641 122.864 84.5923C120.73 84.0205 119.439 81.9173 119.981 79.8946C120.523 77.8718 126.228 72.0353 126.228 72.0353C126.228 72.0353 128.251 79.9424 127.709 81.9651Z" fill="#4BA9FF" fill-opacity="0.25"/>
<path d="M42.2548 31.9651C41.7128 33.9878 39.5436 35.1641 37.4097 34.5923C35.2759 34.0205 33.9854 31.9173 34.5274 29.8946C35.0694 27.8718 40.7744 22.0353 40.7744 22.0353C40.7744 22.0353 42.7968 29.9424 42.2548 31.9651Z" fill="#4BA9FF" fill-opacity="0.25"/>
<path d="M96.2548 31.9651C95.7128 33.9878 93.5436 35.1641 91.4097 34.5923C89.2759 34.0205 87.9854 31.9173 88.5274 29.8946C89.0694 27.8718 94.7744 22.0353 94.7744 22.0353C94.7744 22.0353 96.7968 29.9424 96.2548 31.9651Z" fill="#4BA9FF" fill-opacity="0.25"/>
<path d="M69.2548 31.9651C68.7128 33.9878 66.5436 35.1641 64.4097 34.5923C62.2759 34.0205 60.9854 31.9173 61.5274 29.8946C62.0694 27.8718 67.7744 22.0353 67.7744 22.0353C67.7744 22.0353 69.7968 29.9424 69.2548 31.9651Z" fill="#4BA9FF" fill-opacity="0.25"/>
<path d="M123.255 31.9651C122.713 33.9878 120.544 35.1641 118.41 34.5923C116.276 34.0205 114.985 31.9173 115.527 29.8946C116.069 27.8718 121.774 22.0353 121.774 22.0353C121.774 22.0353 123.797 29.9424 123.255 31.9651Z" fill="#4BA9FF" fill-opacity="0.25"/>
<path d="M177.255 31.9651C176.713 33.9878 174.544 35.1641 172.41 34.5923C170.276 34.0205 168.985 31.9173 169.527 29.8946C170.069 27.8718 175.774 22.0353 175.774 22.0353C175.774 22.0353 177.797 29.9424 177.255 31.9651Z" fill="#4BA9FF" fill-opacity="0.25"/>
<path d="M150.255 31.9651C149.713 33.9878 147.544 35.1641 145.41 34.5923C143.276 34.0205 141.985 31.9173 142.527 29.8946C143.069 27.8718 148.774 22.0353 148.774 22.0353C148.774 22.0353 150.797 29.9424 150.255 31.9651Z" fill="#4BA9FF" fill-opacity="0.25"/>
<path d="M53.7088 5.96512C53.1668 7.98785 50.9976 9.16408 48.8637 8.59231C46.7298 8.02054 45.4394 5.91729 45.9814 3.89457C46.5234 1.87184 52.2284 -3.96472 52.2284 -3.96472C52.2284 -3.96472 54.2508 3.94239 53.7088 5.96512Z" fill="#4BA9FF" fill-opacity="0.25"/>
<path d="M107.709 5.96512C107.167 7.98785 104.998 9.16408 102.864 8.59231C100.73 8.02054 99.4394 5.91729 99.9814 3.89457C100.523 1.87184 106.228 -3.96472 106.228 -3.96472C106.228 -3.96472 108.251 3.94239 107.709 5.96512Z" fill="#4BA9FF" fill-opacity="0.25"/>
<path d="M80.7088 5.96512C80.1668 7.98785 77.9976 9.16408 75.8637 8.59231C73.7298 8.02054 72.4394 5.91729 72.9814 3.89457C73.5234 1.87184 79.2284 -3.96472 79.2284 -3.96472C79.2284 -3.96472 81.2508 3.94239 80.7088 5.96512Z" fill="#4BA9FF" fill-opacity="0.25"/>
<path d="M134.709 5.96512C134.167 7.98785 131.998 9.16408 129.864 8.59231C127.73 8.02054 126.439 5.91729 126.981 3.89457C127.523 1.87184 133.228 -3.96472 133.228 -3.96472C133.228 -3.96472 135.251 3.94239 134.709 5.96512Z" fill="#4BA9FF" fill-opacity="0.25"/>
<path d="M188.709 5.96512C188.167 7.98785 185.998 9.16408 183.864 8.59231C181.73 8.02054 180.439 5.91729 180.981 3.89457C181.523 1.87184 187.228 -3.96472 187.228 -3.96472C187.228 -3.96472 189.251 3.94239 188.709 5.96512Z" fill="#4BA9FF" fill-opacity="0.25"/>
<path d="M161.709 5.96512C161.167 7.98785 158.998 9.16408 156.864 8.59231C154.73 8.02054 153.439 5.91729 153.981 3.89457C154.523 1.87184 160.228 -3.96472 160.228 -3.96472C160.228 -3.96472 162.251 3.94239 161.709 5.96512Z" fill="#4BA9FF" fill-opacity="0.25"/>
</g>
<defs>
<clipPath id="clip0">
<rect width="480" height="80" fill="white"/>
</clipPath>
</defs>
</svg>
